<svg width="102" height="32" viewBox="0 0 102 32" fill="none" xmlns="http://www.w3.org/2000/svg">
<rect x="0.5" width="32" height="32" rx="16" fill="#09090B"/>
<path d="M13.6835 6.47614L19.2479 16.1139L13.6835 14.7371L8.11915 16.1139L13.6835 6.47614Z" fill="white"/>
<path d="M19.4499 25.9049L25.0143 16.2671L19.4499 17.6439L13.8855 16.2671L19.4499 25.9049Z" fill="white"/>
<path d="M44.833 7.43333C46.0033 7.43333 47.0273 7.67714 47.9294 8.116C48.8071 8.55486 49.5141 9.18876 50.0018 10.0177C50.4894 10.8467 50.7332 11.7975 50.7332 12.8703C50.7332 13.9674 50.4894 14.9183 50.0018 15.7472C49.5141 16.5762 48.8071 17.2101 47.9294 17.649C47.0273 18.0878 46.0033 18.3072 44.833 18.3072H40.9077V24.5H38.1039V7.43333H44.833ZM40.9077 15.8691H44.5892C45.5888 15.8691 46.3934 15.601 46.9785 15.0646C47.5637 14.5282 47.8806 13.7968 47.8806 12.8703C47.8806 11.9438 47.588 11.2124 47.0029 10.676C46.4178 10.1396 45.6132 9.87143 44.6136 9.87143H40.9077V15.8691ZM51.0997 14.9183C51.6117 13.943 52.3187 13.2116 53.2452 12.6752C54.1717 12.1389 55.22 11.8707 56.4147 11.8707C57.6094 11.8707 58.6578 12.1145 59.5842 12.6021C60.5107 13.0897 61.2178 13.7968 61.7541 14.6745C62.2905 15.5766 62.5587 16.625 62.5831 17.8196C62.5831 18.161 62.5587 18.4779 62.51 18.8192H53.0989V18.9655C53.1477 20.0627 53.489 20.916 54.1229 21.5499C54.7324 22.1838 55.5614 22.5008 56.5854 22.5008C57.3899 22.5008 58.0726 22.3301 58.6334 21.94C59.1698 21.5499 59.5355 21.0135 59.7305 20.3065H62.3637C62.1199 21.5743 61.5103 22.6227 60.5107 23.4272C59.5111 24.2562 58.2677 24.6463 56.7804 24.6463C55.4639 24.6463 54.3423 24.4025 53.3671 23.8661C52.3919 23.3297 51.6604 22.5983 51.124 21.623C50.5877 20.6722 50.3439 19.5507 50.3439 18.2829C50.3439 17.015 50.5877 15.8935 51.0997 14.9183ZM59.9012 16.8931C59.7793 15.991 59.4136 15.284 58.804 14.772C58.1945 14.26 57.4387 13.9918 56.5122 13.9918C55.6345 13.9918 54.9031 14.26 54.2692 14.7964C53.6353 15.3328 53.294 16.0154 53.1964 16.8931H59.9012ZM63.7854 14.9183C64.2974 13.943 65.0044 13.2116 65.9309 12.6752C66.8574 12.1389 67.9058 11.8707 69.1004 11.8707C70.2951 11.8707 71.3435 12.1145 72.2699 12.6021C73.1964 13.0897 73.9035 13.7968 74.4399 14.6745C74.9762 15.5766 75.2444 16.625 75.2688 17.8196C75.2688 18.161 75.2444 18.4779 75.1957 18.8192H65.7846V18.9655C65.8334 20.0627 66.1747 20.916 66.8086 21.5499C67.4181 22.1838 68.2471 22.5008 69.2711 22.5008C70.0757 22.5008 70.7583 22.3301 71.3191 21.94C71.8555 21.5499 72.2212 21.0135 72.4162 20.3065H75.0494C74.8056 21.5743 74.196 22.6227 73.1964 23.4272C72.1968 24.2562 70.9534 24.6463 69.4661 24.6463C68.1496 24.6463 67.028 24.4025 66.0528 23.8661C65.0776 23.3297 64.3461 22.5983 63.8098 21.623C63.2734 20.6722 63.0296 19.5507 63.0296 18.2829C63.0296 17.015 63.2734 15.8935 63.7854 14.9183ZM72.5869 16.8931C72.465 15.991 72.0993 15.284 71.4898 14.772C70.8802 14.26 70.1244 13.9918 69.1979 13.9918C68.3202 13.9918 67.5888 14.26 66.9549 14.7964C66.321 15.3328 65.9797 16.0154 65.8821 16.8931H72.5869ZM85.9065 12.6509C86.7842 13.1629 87.4913 13.8943 88.0033 14.8695C88.4909 15.8448 88.7591 16.9663 88.7591 18.2585C88.7591 19.5263 88.4909 20.6478 88.0033 21.623C87.4913 22.5983 86.7842 23.3297 85.9065 23.8661C85.0044 24.4025 83.9804 24.6463 82.8589 24.6463C81.9324 24.6463 81.1279 24.4756 80.4452 24.1343C79.7625 23.793 79.2018 23.3297 78.8117 22.7446V29.3762H76.1785V12.017H78.4703L78.7873 13.8699C79.7869 12.5533 81.1522 11.8707 82.8589 11.8707C83.9804 11.8707 85.0044 12.1389 85.9065 12.6509ZM85.0532 21.2573C85.7359 20.4771 86.0772 19.4775 86.0772 18.2585C86.0772 17.0394 85.7359 16.0398 85.0532 15.2596C84.3705 14.5038 83.4928 14.1137 82.42 14.1137C81.3229 14.1137 80.4452 14.5038 79.7869 15.2596C79.1042 16.0154 78.7873 16.9907 78.7873 18.2097C78.7873 19.4775 79.1042 20.4771 79.7869 21.2573C80.4452 22.0375 81.3229 22.4276 82.42 22.4276C83.4928 22.4276 84.3705 22.0375 85.0532 21.2573ZM91.6753 20.3796C91.724 21.0379 92.0166 21.5743 92.5774 21.9888C93.1381 22.4032 93.8696 22.5983 94.7717 22.5983C95.5519 22.5983 96.2101 22.452 96.6978 22.1594C97.1854 21.8669 97.4536 21.4524 97.4536 20.9404C97.4536 20.5259 97.3317 20.209 97.1122 19.9895C96.8684 19.7945 96.5759 19.6482 96.1858 19.5507C95.7957 19.4531 95.2105 19.3556 94.4303 19.2581C93.3332 19.1362 92.4311 18.9655 91.724 18.7461C91.017 18.5267 90.4562 18.1853 90.0174 17.6977C89.5785 17.2101 89.3835 16.5762 89.3835 15.7472C89.3835 14.9914 89.5785 14.3088 90.0174 13.7236C90.4562 13.1385 91.0414 12.6752 91.7972 12.3339C92.553 12.017 93.4063 11.8463 94.3816 11.8463C95.9419 11.8463 97.2341 12.212 98.2094 12.8947C99.1846 13.6017 99.721 14.577 99.8185 15.8448H97.2585C97.1854 15.284 96.8928 14.8208 96.4052 14.455C95.8932 14.0893 95.2593 13.8943 94.5035 13.8943C93.7233 13.8943 93.1138 14.0406 92.6505 14.3331C92.1629 14.6257 91.9435 15.0402 91.9435 15.5278C91.9435 15.9179 92.041 16.1861 92.2848 16.3811C92.5286 16.5762 92.8212 16.6981 93.1869 16.7712C93.5282 16.8444 94.1134 16.9175 94.9179 17.015C95.9907 17.137 96.8928 17.3076 97.6242 17.5514C98.3557 17.7952 98.9408 18.161 99.3797 18.673C99.8185 19.185 100.038 19.8676 100.038 20.7453C100.038 21.5255 99.7941 22.2326 99.3553 22.8177C98.892 23.4029 98.2581 23.8661 97.4779 24.183C96.6734 24.5 95.7713 24.6463 94.796 24.6463C93.1138 24.6463 91.7484 24.2806 90.7244 23.5248C89.7004 22.769 89.164 21.7206 89.1397 20.3796H91.6753Z" fill="#09090B"/>
</svg>
