<svg width="102" height="32" viewBox="0 0 102 32" fill="none" xmlns="http://www.w3.org/2000/svg">
<rect width="32" height="32" rx="16" fill="white"/>
<path d="M13.1835 6.47614L18.7479 16.1139L13.1835 14.7371L7.61914 16.1139L13.1835 6.47614Z" fill="#09090B"/>
<path d="M18.9499 25.9049L24.5143 16.2671L18.9499 17.6439L13.3856 16.2671L18.9499 25.9049Z" fill="#09090B"/>
<path d="M44.333 7.43333C45.5033 7.43333 46.5273 7.67714 47.4294 8.116C48.3071 8.55486 49.0141 9.18876 49.5017 10.0177C49.9894 10.8467 50.2332 11.7975 50.2332 12.8703C50.2332 13.9674 49.9894 14.9183 49.5017 15.7472C49.0141 16.5762 48.3071 17.2101 47.4294 17.649C46.5273 18.0878 45.5033 18.3072 44.333 18.3072H40.4076V24.5H37.6038V7.43333H44.333ZM40.4076 15.8691H44.0892C45.0888 15.8691 45.8934 15.601 46.4785 15.0646C47.0636 14.5282 47.3806 13.7968 47.3806 12.8703C47.3806 11.9438 47.088 11.2124 46.5029 10.676C45.9177 10.1396 45.1132 9.87143 44.1136 9.87143H40.4076V15.8691ZM50.5996 14.9183C51.1116 13.943 51.8187 13.2116 52.7452 12.6752C53.6716 12.1389 54.72 11.8707 55.9147 11.8707C57.1094 11.8707 58.1577 12.1145 59.0842 12.6021C60.0107 13.0897 60.7177 13.7968 61.2541 14.6745C61.7905 15.5766 62.0587 16.625 62.0831 17.8196C62.0831 18.161 62.0587 18.4779 62.0099 18.8192H52.5989V18.9655C52.6476 20.0627 52.989 20.916 53.6229 21.5499C54.2324 22.1838 55.0614 22.5008 56.0854 22.5008C56.8899 22.5008 57.5726 22.3301 58.1334 21.94C58.6697 21.5499 59.0355 21.0135 59.2305 20.3065H61.8636C61.6198 21.5743 61.0103 22.6227 60.0107 23.4272C59.0111 24.2562 57.7676 24.6463 56.2804 24.6463C54.9638 24.6463 53.8423 24.4025 52.8671 23.8661C51.8918 23.3297 51.1604 22.5983 50.624 21.623C50.0876 20.6722 49.8438 19.5507 49.8438 18.2829C49.8438 17.015 50.0876 15.8935 50.5996 14.9183ZM59.4012 16.8931C59.2793 15.991 58.9135 15.284 58.304 14.772C57.6945 14.26 56.9387 13.9918 56.0122 13.9918C55.1345 13.9918 54.4031 14.26 53.7692 14.7964C53.1353 15.3328 52.7939 16.0154 52.6964 16.8931H59.4012ZM63.2854 14.9183C63.7974 13.943 64.5044 13.2116 65.4309 12.6752C66.3574 12.1389 67.4057 11.8707 68.6004 11.8707C69.7951 11.8707 70.8435 12.1145 71.7699 12.6021C72.6964 13.0897 73.4035 13.7968 73.9398 14.6745C74.4762 15.5766 74.7444 16.625 74.7688 17.8196C74.7688 18.161 74.7444 18.4779 74.6956 18.8192H65.2846V18.9655C65.3334 20.0627 65.6747 20.916 66.3086 21.5499C66.9181 22.1838 67.7471 22.5008 68.7711 22.5008C69.5756 22.5008 70.2583 22.3301 70.8191 21.94C71.3555 21.5499 71.7212 21.0135 71.9162 20.3065H74.5494C74.3055 21.5743 73.696 22.6227 72.6964 23.4272C71.6968 24.2562 70.4534 24.6463 68.9661 24.6463C67.6495 24.6463 66.528 24.4025 65.5528 23.8661C64.5775 23.3297 63.8461 22.5983 63.3097 21.623C62.7734 20.6722 62.5296 19.5507 62.5296 18.2829C62.5296 17.015 62.7734 15.8935 63.2854 14.9183ZM72.0869 16.8931C71.965 15.991 71.5993 15.284 70.9897 14.772C70.3802 14.26 69.6244 13.9918 68.6979 13.9918C67.8202 13.9918 67.0888 14.26 66.4549 14.7964C65.821 15.3328 65.4796 16.0154 65.3821 16.8931H72.0869ZM85.4065 12.6509C86.2842 13.1629 86.9913 13.8943 87.5033 14.8695C87.9909 15.8448 88.2591 16.9663 88.2591 18.2585C88.2591 19.5263 87.9909 20.6478 87.5033 21.623C86.9913 22.5983 86.2842 23.3297 85.4065 23.8661C84.5044 24.4025 83.4804 24.6463 82.3589 24.6463C81.4324 24.6463 80.6278 24.4756 79.9452 24.1343C79.2625 23.793 78.7017 23.3297 78.3116 22.7446V29.3762H75.6785V12.017H77.9703L78.2873 13.8699C79.2869 12.5533 80.6522 11.8707 82.3589 11.8707C83.4804 11.8707 84.5044 12.1389 85.4065 12.6509ZM84.5532 21.2573C85.2358 20.4771 85.5772 19.4775 85.5772 18.2585C85.5772 17.0394 85.2358 16.0398 84.5532 15.2596C83.8705 14.5038 82.9928 14.1137 81.92 14.1137C80.8229 14.1137 79.9452 14.5038 79.2869 15.2596C78.6042 16.0154 78.2873 16.9907 78.2873 18.2097C78.2873 19.4775 78.6042 20.4771 79.2869 21.2573C79.9452 22.0375 80.8229 22.4276 81.92 22.4276C82.9928 22.4276 83.8705 22.0375 84.5532 21.2573ZM91.1753 20.3796C91.224 21.0379 91.5166 21.5743 92.0774 21.9888C92.6381 22.4032 93.3695 22.5983 94.2716 22.5983C95.0518 22.5983 95.7101 22.452 96.1977 22.1594C96.6854 21.8669 96.9535 21.4524 96.9535 20.9404C96.9535 20.5259 96.8316 20.209 96.6122 19.9895C96.3684 19.7945 96.0758 19.6482 95.6857 19.5507C95.2956 19.4531 94.7105 19.3556 93.9303 19.2581C92.8332 19.1362 91.9311 18.9655 91.224 18.7461C90.517 18.5267 89.9562 18.1853 89.5174 17.6977C89.0785 17.2101 88.8835 16.5762 88.8835 15.7472C88.8835 14.9914 89.0785 14.3088 89.5174 13.7236C89.9562 13.1385 90.5414 12.6752 91.2972 12.3339C92.053 12.017 92.9063 11.8463 93.8815 11.8463C95.4419 11.8463 96.7341 12.212 97.7094 12.8947C98.6846 13.6017 99.221 14.577 99.3185 15.8448H96.7585C96.6854 15.284 96.3928 14.8208 95.9052 14.455C95.3932 14.0893 94.7593 13.8943 94.0035 13.8943C93.2233 13.8943 92.6137 14.0406 92.1505 14.3331C91.6629 14.6257 91.4435 15.0402 91.4435 15.5278C91.4435 15.9179 91.541 16.1861 91.7848 16.3811C92.0286 16.5762 92.3212 16.6981 92.6869 16.7712C93.0282 16.8444 93.6134 16.9175 94.4179 17.015C95.4907 17.137 96.3928 17.3076 97.1242 17.5514C97.8556 17.7952 98.4408 18.161 98.8796 18.673C99.3185 19.185 99.5379 19.8676 99.5379 20.7453C99.5379 21.5255 99.2941 22.2326 98.8553 22.8177C98.392 23.4029 97.7581 23.8661 96.9779 24.183C96.1734 24.5 95.2713 24.6463 94.296 24.6463C92.6137 24.6463 91.2484 24.2806 90.2244 23.5248C89.2004 22.769 88.664 21.7206 88.6396 20.3796H91.1753Z" fill="white"/>
</svg>
